<?xml version="1.0" encoding="UTF-8"?>
<svg id="Layer_1" xmlns="http://www.w3.org/2000/svg" viewBox="0 0 800 800">
  <defs>
    <style>
      .cls-1 {
        fill: #4eba6d;
      }

      .cls-2 {
        fill: none;
        stroke: #4eba6d;
        stroke-miterlimit: 10;
        stroke-width: 51px;
      }

      .cls-3 {
        fill: #231f20;
      }

      .cls-4 {
        fill: #141414;
      }

      .cls-5 {
        fill: #e1e54e;
      }

      .cls-6 {
        fill: #f7f7f7;
      }

      .cls-7 {
        fill: #7082c0;
      }

      .cls-8 {
        fill: #ef90bc;
      }
    </style>
  </defs>
  <rect class="cls-4" width="800" height="800"/>
  <path class="cls-1" d="M416.43,280.34h0c115.02,0,208.41,93.38,208.41,208.41v504.87H208.02v-504.87c0-115.02,93.38-208.41,208.41-208.41Z"/>
  <g>
    <rect class="cls-4" x="354.91" y="354.51" width="30.3" height="93.3" rx="15.15" ry="15.15" transform="translate(-78.68 90.51) rotate(-12.62)"/>
    <rect class="cls-4" x="263.45" y="400.09" width="11.36" height="93.3" rx="5.68" ry="5.68" transform="translate(743.48 229.95) rotate(96.5)"/>
    <rect class="cls-4" x="257.76" y="430.59" width="11.36" height="93.3" rx="5.68" ry="5.68" transform="translate(703.34 155.29) rotate(82.7)"/>
    <rect class="cls-4" x="267.78" y="461.97" width="11.36" height="93.3" rx="5.68" ry="5.68" transform="translate(618.58 45.62) rotate(64.97)"/>
    <rect class="cls-4" x="522.49" y="355.25" width="11.36" height="93.3" rx="5.68" ry="5.68" transform="translate(693.91 -240.77) rotate(67.19)"/>
    <rect class="cls-4" x="536.51" y="382.92" width="11.36" height="93.3" rx="5.68" ry="5.68" transform="translate(881.62 -173.17) rotate(81)"/>
    <rect class="cls-4" x="535.7" y="415.86" width="11.36" height="93.3" rx="5.68" ry="5.68" transform="translate(1080.71 -2.4) rotate(98.73)"/>
    <rect class="cls-4" x="414.66" y="341.14" width="30.3" height="93.3" rx="15.15" ry="15.15" transform="translate(-74.32 103.24) rotate(-12.62)"/>
    <g>
      <path class="cls-4" d="M469.8,468.96s-35.65,10.27-53.04,10.27-53.04-10.27-53.04-10.27c-23.39-6.93-40.31,18.05-40.31,40.31h0c0,27.34,25.02,40.06,50.11,45.88-1.38-26.41,20.18-49.32,48.63-51.41,27.95-2.05,52.26,16.74,55.48,42.35,17.99-8.07,32.48-20.04,32.48-36.82h0c0-22.26-9.54-50.54-40.31-40.31Z"/>
      <path class="cls-8" d="M477.63,546.09h0s-.01,0-.02,0c0,0,.01,0,.02,0Z"/>
      <polygon class="cls-8" points="373.51 555.15 373.52 555.15 373.51 555.15 373.51 555.15"/>
      <path class="cls-8" d="M422.15,503.73c-28.45,2.09-50.01,25-48.63,51.41,0,0,0,0,0,0,2.09.48,4.19.92,6.27,1.31.06.01.11.02.17.03,2.05.39,4.09.73,6.1,1.04.04,0,.07.01.11.02,1.01.15,2.02.3,3.01.43,0,0,.02,0,.02,0,1.99.27,3.94.5,5.85.7.06,0,.13.01.19.02,1.87.19,3.69.36,5.44.5.05,0,.11,0,.16.01.86.07,1.7.13,2.53.18.07,0,.14,0,.22.01,1.64.11,3.21.19,4.7.25.11,0,.22,0,.32.01.72.03,1.42.06,2.09.08.07,0,.13,0,.2,0,.63.02,1.25.04,1.84.05.09,0,.18,0,.27,0,.61.01,1.2.02,1.77.03.12,0,.23,0,.35,0,.56,0,1.12,0,1.63,0h0c.38,0,.77,0,1.18-.01.13,0,.26,0,.39-.01.28,0,.56-.01.85-.02.17,0,.34-.01.51-.02.27-.01.53-.02.81-.04.18,0,.37-.02.56-.03.27-.02.55-.03.83-.05.19-.01.39-.03.59-.04.28-.02.57-.04.86-.06.21-.02.41-.03.62-.05.29-.02.59-.05.9-.08.21-.02.43-.04.64-.06.31-.03.62-.06.94-.09.22-.02.43-.04.65-.07.33-.04.67-.07,1.01-.11.21-.02.42-.05.63-.07.37-.04.75-.09,1.13-.14.18-.02.37-.04.55-.07.46-.06.92-.12,1.38-.18.12-.02.23-.03.35-.05,1.19-.16,2.41-.35,3.66-.55.12-.02.23-.04.35-.06.5-.08,1.01-.16,1.52-.25.17-.03.35-.06.52-.09.46-.08.92-.16,1.38-.24.2-.04.4-.07.6-.11.44-.08.89-.16,1.34-.25.21-.04.42-.08.64-.12.45-.09.89-.18,1.34-.27.22-.04.43-.09.65-.13.45-.09.9-.19,1.35-.28.22-.05.44-.09.65-.14.46-.1.93-.2,1.4-.31.21-.05.42-.09.62-.14.49-.11.99-.23,1.48-.34.18-.04.37-.09.55-.13.55-.13,1.1-.27,1.65-.4.13-.03.26-.06.39-.1,2.1-.53,4.21-1.1,6.33-1.71.04-.01.09-.03.13-.04.65-.19,1.3-.38,1.95-.58.14-.04.27-.09.41-.13.55-.17,1.11-.34,1.66-.52.18-.06.37-.12.55-.18.51-.16,1.02-.33,1.53-.5.2-.07.4-.13.6-.2.49-.17.99-.34,1.48-.51.21-.07.41-.14.62-.22.49-.17.97-.35,1.46-.52.2-.07.41-.15.61-.22.49-.18.98-.37,1.46-.55.19-.07.39-.15.58-.22.5-.2,1-.39,1.5-.6.17-.07.35-.14.52-.21.54-.22,1.08-.44,1.61-.67.13-.05.26-.11.38-.16.65-.28,1.3-.56,1.95-.85,0,0,.01,0,.02,0-3.22-25.61-27.53-44.41-55.48-42.35Z"/>
    </g>
    <path class="cls-7" d="M404.29,449.12l26.01-4.22c3.06-.5,5.19,2.95,3.38,5.46l-10.9,15.11c-1.12,1.56-3.29,1.91-4.85.79l-15.11-10.9c-2.51-1.81-1.58-5.75,1.48-6.25Z"/>
    <path class="cls-1" d="M386.23,366.14l6.79,25.46c.8,2.99-2.42,5.45-5.1,3.9l-16.13-9.33c-1.66-.96-2.23-3.09-1.27-4.75l9.33-16.13c1.55-2.68,5.57-2.15,6.36.84Z"/>
    <path class="cls-1" d="M447.41,354.83l6.79,25.46c.8,2.99-2.42,5.45-5.1,3.9l-16.13-9.33c-1.66-.96-2.23-3.09-1.27-4.75l9.33-16.13c1.55-2.68,5.57-2.15,6.36.84Z"/>
    <path class="cls-5" d="M475.03,483.15l10.87-15.13c.19-.27.33-.54.44-.83-4.67-.8-10.14-.36-16.54,1.77,0,0-6.34,1.82-14.97,3.93.07.06.14.13.22.18l15.13,10.87c1.56,1.12,3.73.76,4.85-.79Z"/>
    <path class="cls-5" d="M363.72,468.96c-.71-.21-1.41-.39-2.1-.54.04.57.22,1.16.59,1.7l10.43,15.44c1.07,1.59,3.23,2.01,4.82.93l15.41-10.41c-14.88-3.02-29.15-7.13-29.15-7.13Z"/>
  </g>
  <path class="cls-1" d="M476.43,144.32c-6.26,4.84,4.04,19.22,12.09,25.39,8.05,6.17,25.71,25.41,39.81,29.61,14.1,4.2,44.73,8.63,48.56,12.77s36.2-34.92,36.2-34.92c-4.5-11.5-4.34-27.49-5.09-38.91s-33.42-85.18-45.03-79.99,9.53,36.06,3.74,39.94-27.52-55.38-42.63-47.22c-15.11,8.16,31.71,60.37,23.31,65.02s-41.12-70.56-58.12-55.25c-12.25,11.03,43.24,62.48,35.53,67.39-7.71,4.9-39.29-54.11-53.76-37.79-8.82,9.95,51.72,69.21,46.77,75.16-6.39,7.69-32.04-28.41-41.39-21.18Z"/>
  <path class="cls-2" d="M513.63,677.89s161.78,2.67,178.67-88.89-8-104-20.44-145.78-6.3-121.61-22.22-163.56c-24.89-65.57-83.56-112.89-83.56-112.89"/>
  <path class="cls-2" d="M226.3,689.15s-100,20-85.33,128"/>
  <path class="cls-1" d="M225.54,402.12l-40.6-84.05c-2.92-8.89,5.15-17.49,14.21-15.15l82.58,42.07c8.86,2.29,11.88,13.35,5.4,19.82l-41.98,41.98c-6.24,6.24-16.86,3.7-19.61-4.68Z"/>
  <path class="cls-1" d="M333.26,302.79l8.74-80.84c1.82-9.18,13.06-12.71,19.81-6.23l48.43,64.85c6.6,6.35,3.8,17.46-5.01,19.92l-57.17,15.99c-8.49,2.38-16.51-5.04-14.79-13.69Z"/>
  <g>
    <circle class="cls-6" cx="162.81" cy="139.39" r="94.17"/>
    <path class="cls-6" d="M221.38,194.95l22.01,35.61c1.78,2.88-.78,6.48-4.09,5.75l-40.87-9.08,22.94-32.28Z"/>
    <g>
      <path class="cls-3" d="M109.68,157.81c-1.8,0-3.08-.27-3.84-.81-.76-.54-1.22-1.24-1.38-2.1-.16-.86-.24-1.73-.24-2.61v-30.96c0-.88.08-1.74.24-2.58.16-.84.62-1.53,1.38-2.07.76-.54,2.06-.81,3.9-.81s3.13.27,3.87.81c.74.54,1.19,1.23,1.35,2.07.16.84.24,1.72.24,2.64v30.96c0,.88-.08,1.74-.24,2.58-.16.84-.62,1.53-1.38,2.07-.76.54-2.06.81-3.9.81ZM114.24,141.55v-9.36h15.6v9.36h-15.6ZM134.34,157.81c-1.8,0-3.08-.27-3.84-.81-.76-.54-1.22-1.24-1.38-2.1-.16-.86-.24-1.73-.24-2.61v-30.96c0-.88.08-1.74.24-2.58.16-.84.62-1.53,1.38-2.07.76-.54,2.06-.81,3.9-.81s3.13.27,3.87.81c.74.54,1.19,1.23,1.35,2.07.16.84.24,1.72.24,2.64v30.96c0,.88-.08,1.74-.24,2.58-.16.84-.62,1.53-1.38,2.07-.76.54-2.06.81-3.9.81Z"/>
      <path class="cls-3" d="M158.82,158.53c-3,0-5.54-.49-7.62-1.47-2.08-.98-3.76-2.26-5.04-3.84-1.28-1.58-2.22-3.29-2.82-5.13-.6-1.84-.9-3.62-.9-5.34,0-3.16.7-5.94,2.1-8.34,1.4-2.4,3.34-4.28,5.82-5.64,2.48-1.36,5.32-2.04,8.52-2.04,2.48,0,4.6.4,6.36,1.2,1.76.8,3.19,1.82,4.29,3.06,1.1,1.24,1.91,2.56,2.43,3.96.52,1.4.78,2.7.78,3.9,0,2.28-.56,4.02-1.68,5.22-1.12,1.2-2.56,1.8-4.32,1.8h-12.78c.16.64.49,1.19.99,1.65.5.46,1.13.82,1.89,1.08.76.26,1.58.39,2.46.39s1.66-.05,2.34-.15c.68-.1,1.27-.23,1.77-.39.5-.16.96-.32,1.38-.48.42-.16.8-.29,1.14-.39.34-.1.67-.15.99-.15.72,0,1.38.24,1.98.72s1.14,1.2,1.62,2.16c.28.52.48,1.01.6,1.47.12.46.18.89.18,1.29,0,1.2-.49,2.2-1.47,3-.98.8-2.39,1.41-4.23,1.83-1.84.42-4.1.63-6.78.63ZM153.96,140.23h6.72c.56,0,.97-.12,1.23-.36.26-.24.39-.6.39-1.08,0-.52-.15-.96-.45-1.32-.3-.36-.71-.63-1.23-.81-.52-.18-1.14-.27-1.86-.27-.96,0-1.8.19-2.52.57-.72.38-1.27.86-1.65,1.44-.38.58-.59,1.19-.63,1.83Z"/>
      <path class="cls-3" d="M189.84,156.97l-14.28-21.6c-1.04-1.6-1.46-2.93-1.26-3.99.2-1.06,1.16-2.13,2.88-3.21,1.88-1.16,3.33-1.61,4.35-1.35,1.02.26,2.07,1.21,3.15,2.85l9.72,14.7-4.56,12.6ZM184.98,170.17c-1.96-.88-3.1-1.85-3.42-2.91-.32-1.06-.06-2.45.78-4.17l14.58-32.64c.84-1.88,1.74-3,2.7-3.36.96-.36,2.44-.14,4.44.66,1.92.88,3.05,1.82,3.39,2.82.34,1,.13,2.34-.63,4.02l-14.7,32.94c-.8,1.88-1.69,3.01-2.67,3.39-.98.38-2.47.13-4.47-.75Z"/>
      <path class="cls-3" d="M215.64,157.93c-2.32,0-3.86-.45-4.62-1.35-.76-.9-1.14-2.39-1.14-4.47,0-.88.09-1.76.27-2.64.18-.88.67-1.61,1.47-2.19.8-.58,2.16-.87,4.08-.87,2.36,0,3.9.44,4.62,1.32.72.88,1.08,2.38,1.08,4.5,0,.88-.08,1.76-.24,2.64-.16.88-.64,1.61-1.44,2.19-.8.58-2.16.87-4.08.87ZM215.64,143.17c-1.8,0-3.08-.24-3.84-.72-.76-.48-1.22-1.09-1.38-1.83-.16-.74-.24-1.51-.24-2.31v-17.7c0-.8.08-1.58.24-2.34.16-.76.62-1.39,1.38-1.89.76-.5,2.06-.75,3.9-.75s3.13.25,3.87.75c.74.5,1.19,1.14,1.35,1.92.16.78.24,1.57.24,2.37v17.7c0,.8-.08,1.57-.24,2.31-.16.74-.62,1.34-1.38,1.8-.76.46-2.06.69-3.9.69Z"/>
    </g>
  </g>
</svg>