<?xml version="1.0" encoding="UTF-8"?>
<svg id="Layer_1" xmlns="http://www.w3.org/2000/svg" viewBox="0 0 350.67 166.78">
  <defs>
    <style>
      .cls-1 {
        fill: #fff;
      }
    </style>
  </defs>
  <path class="cls-1" d="M218.68,1.56h0c-8.15,0-14.76,6.61-14.76,14.76v68.83c-3.64-1.06-7.48-1.64-11.46-1.64-22.63,0-40.98,18.35-40.98,40.98s18.35,40.98,40.98,40.98c5.93,0,11.56-1.27,16.65-3.54,2.58,2.2,5.92,3.54,9.57,3.54h0c8.15,0,14.76-6.61,14.76-14.76V16.31c0-8.15-6.61-14.76-14.76-14.76ZM192.46,135.31c-5.97,0-10.83-4.86-10.83-10.83s4.86-10.83,10.83-10.83,10.83,4.86,10.83,10.83-4.86,10.83-10.83,10.83Z"/>
  <path class="cls-1" d="M47.03,48.16h-12.77v-31.85c0-8.15-6.61-14.76-14.76-14.76s-14.76,6.61-14.76,14.76v134.38c0,8.15,6.61,14.76,14.76,14.76s14.76-6.61,14.76-14.76v-73.02h12.77c7.96,0,14.42-6.46,14.42-14.42v-.68c0-7.96-6.46-14.42-14.42-14.42Z"/>
  <g>
    <path class="cls-1" d="M96.03,113.65c5.97,0,10.83,4.86,10.83,10.83s-4.86,10.83-10.83,10.83-10.83-4.86-10.83-10.83,4.86-10.83,10.83-10.83M96.03,83.51c-22.63,0-40.97,18.35-40.97,40.97s18.35,40.98,40.97,40.98,40.97-18.35,40.97-40.98-18.35-40.97-40.97-40.97h0Z"/>
    <g>
      <rect class="cls-1" x="70.54" y="48.07" width="13.11" height="29.52" rx="6.55" ry="6.55"/>
      <rect class="cls-1" x="108.41" y="48.07" width="13.11" height="29.52" rx="6.55" ry="6.55"/>
    </g>
  </g>
  <g>
    <path class="cls-1" d="M292.36,113.65c5.97,0,10.83,4.86,10.83,10.83s-4.86,10.83-10.83,10.83-10.83-4.86-10.83-10.83,4.86-10.83,10.83-10.83M292.36,83.51c-22.63,0-40.97,18.35-40.97,40.97s18.35,40.98,40.97,40.98,40.97-18.35,40.97-40.98-18.35-40.97-40.97-40.97h0Z"/>
    <g>
      <rect class="cls-1" x="270.8" y="48.07" width="13.11" height="29.52" rx="6.55" ry="6.55"/>
      <rect class="cls-1" x="308.68" y="48.07" width="13.11" height="29.52" rx="6.55" ry="6.55"/>
    </g>
  </g>
</svg>